<?xml version="1.0" encoding="UTF-8" standalone="no"?>
<!-- Generator: Adobe Illustrator 13.0.1, SVG Export Plug-In . SVG Version: 6.00 Build 14948)  -->
<svg
   xmlns:dc="http://purl.org/dc/elements/1.1/"
   xmlns:cc="http://creativecommons.org/ns#"
   xmlns:rdf="http://www.w3.org/1999/02/22-rdf-syntax-ns#"
   xmlns:svg="http://www.w3.org/2000/svg"
   xmlns="http://www.w3.org/2000/svg"
   xmlns:sodipodi="http://sodipodi.sourceforge.net/DTD/sodipodi-0.dtd"
   xmlns:inkscape="http://www.inkscape.org/namespaces/inkscape"
   version="1.0"
   id="Layer_1"
   x="0px"
   y="0px"
   width="125"
   height="125"
   viewBox="0 0 491.067 491"
   enable-background="new 0 0 491.067 491"
   xml:space="preserve"
   sodipodi:version="0.32"
   inkscape:version="0.46"
   sodipodi:docname="avatar.svg"
   inkscape:output_extension="org.inkscape.output.svg.inkscape"><metadata
   id="metadata2577"><rdf:RDF><cc:Work
       rdf:about=""><dc:format>image/svg+xml</dc:format><dc:type
         rdf:resource="http://purl.org/dc/dcmitype/StillImage" /></cc:Work></rdf:RDF></metadata><defs
   id="defs2575"><inkscape:perspective
     sodipodi:type="inkscape:persp3d"
     inkscape:vp_x="0 : 245.5 : 1"
     inkscape:vp_y="0 : 1000 : 0"
     inkscape:vp_z="491.06699 : 245.5 : 1"
     inkscape:persp3d-origin="245.53349 : 163.66667 : 1"
     id="perspective2579" /></defs><sodipodi:namedview
   inkscape:window-height="701"
   inkscape:window-width="640"
   inkscape:pageshadow="2"
   inkscape:pageopacity="0.0"
   guidetolerance="10.0"
   gridtolerance="10.0"
   objecttolerance="10.0"
   borderopacity="1.0"
   bordercolor="#666666"
   pagecolor="#ffffff"
   id="base"
   showgrid="false"
   inkscape:zoom="1.4343755"
   inkscape:cx="61.165678"
   inkscape:cy="45.219714"
   inkscape:window-x="68"
   inkscape:window-y="22"
   inkscape:current-layer="Layer_1" />
	<path
   d="M 466.127,194.84 C 476.447,202.33 488.598,213.05 486.387,236.93 C 483.217,271.23 473.537,314.09 445.867,317.98 C 437.576,319.15 432.027,317.109 424.037,317.98 C 433.947,370.49 418.947,420.878 391.307,445.798 C 391.807,442.178 391.057,439.808 389.746,437.998 C 382.467,445.268 376.867,454.208 369.486,461.378 C 366.406,460.308 365.326,457.23 364.806,453.588 C 359.675,457.288 354.976,461.418 350.777,466.058 C 345.896,466.788 346.386,462.138 344.547,459.829 C 339.178,462.767 336.947,468.859 330.518,470.739 C 324.557,470.979 325.448,464.369 322.727,461.379 C 314.877,463.929 310.938,470.379 302.457,472.289 C 303.746,467.889 300.268,468.259 300.896,464.499 C 266.466,465.879 227.426,467.549 193.346,464.499 C 191.036,465.829 189.996,468.419 190.236,472.289 C 182.416,470.239 177.726,465.059 171.526,461.379 C 166.936,463.019 166.106,468.429 163.736,472.289 C 157.516,469.669 153.516,464.839 149.706,459.829 C 145.306,460.109 147.756,467.229 141.906,466.058 C 138.306,461.348 132.146,459.2 129.436,453.588 C 125.446,453.748 126.936,459.4 124.766,461.378 C 114.726,456.868 110.006,447.048 104.496,437.998 C 99.776,437.428 101.266,443.078 99.826,445.798 C 73.696,420.238 56.036,369.269 68.646,319.538 C 16.986,329.048 7.616,279.397 3.186,238.488 C -1.074,199.188 25.376,191.168 63.976,191.717 C 72.136,172.207 63.176,148.207 53.066,137.167 C 53.086,131.477 57.496,130.167 59.296,126.257 C 54.626,126.257 49.946,126.257 45.266,126.257 C 57.266,94.597 78.636,72.337 107.616,57.667 C 107.616,62.347 107.616,67.027 107.616,71.697 C 123.196,52.987 144.176,39.667 173.086,34.287 C 173.196,42.187 167.576,44.367 166.846,51.437 C 208.866,29.547 276.276,19.537 349.226,23.377 C 343.265,32.487 333.287,37.577 324.287,43.637 C 372.107,42.317 422.557,48.357 458.336,63.907 C 440.566,73.677 419.127,79.767 406.898,95.077 C 430.787,96.127 449.127,102.727 464.568,112.227 C 450.216,121.777 434.306,129.757 417.806,137.167 C 423.898,152.377 433.577,163.997 436.507,182.367 C 430.706,180.377 423.366,179.927 417.806,177.697 C 418.966,183.807 423.886,186.157 425.597,191.717 C 439.608,192.26 451.438,194.98 466.127,194.84 z M 419.368,300.83 C 474.487,318.439 475.987,232.36 459.897,210.43 C 448.557,208.26 436.438,206.87 422.487,207.31 C 410.477,225.67 411.987,278.189 419.368,300.83 z M 388.188,130.93 C 404.739,125.66 419.579,118.68 438.069,115.35 C 425.198,103.8 396.249,108.33 378.839,101.32 C 392.118,86.02 412.419,77.74 428.72,65.47 C 383.509,57.97 321.05,56.2 274.409,63.91 C 285.188,53.39 300.68,47.58 311.819,37.41 C 239.928,37.23 181.808,59.11 135.678,79.5 C 140.068,71.91 149.668,61.31 149.708,54.56 C 126.688,66.87 110.588,86.1 92.028,102.88 C 94.818,96.83 95.068,88.24 98.268,82.61 C 85.208,89.82 71.218,104.39 68.648,116.9 C 72.468,113.97 76.278,111.02 82.678,110.67 C 78.948,118.37 72.768,123.62 68.648,130.93 C 75.848,143.48 81.328,157.74 81.118,177.7 C 92.528,176.63 102.988,174.62 115.418,174.58 C 121.228,164.28 124.058,151.01 129.438,140.29 C 200.038,118.61 304.288,126.74 364.807,151.2 C 369.649,158.83 374.127,166.81 377.278,176.14 C 386.727,176.56 394.649,178.51 403.778,179.25 C 403.128,170.03 398.198,165.09 397.549,155.87 C 404.498,158.79 409.988,163.18 417.809,165.23 C 413.217,148.51 399.237,141.19 388.188,130.93 z M 410.018,204.19 C 410.018,201.08 410.018,197.96 410.018,194.84 C 404.957,192.58 390.038,192.01 385.079,194.84 C 387.569,197.03 389.058,200.21 389.749,204.19 C 396.508,204.19 403.258,204.19 410.018,204.19 z M 406.897,190.17 C 407.778,177.83 384.817,181.1 378.836,180.81 C 381.326,183 382.816,186.18 383.516,190.17 C 391.307,190.17 399.098,190.17 406.897,190.17 z M 392.868,425.53 C 410.618,397.67 419.528,344.87 405.337,307.07 C 396.667,385.299 339.698,420.04 254.139,423.968 C 160.789,428.258 93.029,386.668 84.239,303.948 C 72.659,343.927 77.009,401.618 99.829,425.528 C 99.749,420.778 101.239,417.596 104.499,416.176 C 106.459,428.778 112.389,437.386 120.089,444.238 C 120.589,439.016 121.699,434.408 124.769,431.766 C 129.579,436.818 133.259,443.016 137.239,448.908 C 142.439,448.918 141.369,442.648 145.029,441.118 C 148.669,446.828 152.189,452.668 159.059,455.148 C 160.259,450.108 163.369,446.988 168.409,445.796 C 170.989,449.977 176.319,451.398 179.319,455.148 C 216.009,452.296 274.949,451.608 311.82,455.148 C 314.65,450.708 320.379,449.158 324.289,445.796 C 329.15,447.166 329.4,453.148 333.641,455.148 C 337.12,449.788 342.532,446.368 346.112,441.118 C 349.551,442.358 348.132,448.448 352.341,448.908 C 358.161,443.818 360.171,434.918 367.931,431.766 C 369.601,435.806 368.921,442.206 372.613,444.238 C 378.443,435.516 383.203,425.738 388.193,416.176 C 390.448,418.6 390.268,423.45 392.868,425.53 z M 403.778,219.78 C 404.038,215.37 406.637,213.29 406.897,208.87 C 403.167,209.82 395.586,206.91 394.426,210.43 C 400.608,210.48 400.877,216.44 403.778,219.78 z M 400.657,285.25 C 401.917,273.57 403.009,256.221 395.987,244.72 C 391.708,287.15 359.247,318.029 305.577,308.63 C 287.157,305.401 272.848,291.01 265.048,274.34 C 259.247,261.91 256.497,239.84 251.027,238.49 C 238.177,235.3 237.727,261.99 233.877,271.219 C 225.537,291.19 206.887,305.93 188.677,308.629 C 131.267,317.129 106.297,284.93 99.827,240.039 C 99.737,239.089 99.597,238.199 98.267,238.489 C 94.217,245.189 88.627,251.177 87.357,257.189 C 82.857,278.499 92.537,288.217 96.707,299.279 C 106.497,325.209 108.657,351.909 124.767,372.539 C 152.987,408.669 213.147,418.509 266.607,414.619 C 291.618,412.799 327.737,406.319 346.108,394.359 C 381.217,371.49 396.497,324.07 400.657,285.25 z M 385.077,240.04 C 386.618,232.76 396.747,234.05 394.429,222.9 C 389.378,216.56 380.07,222.48 374.158,224.46 C 363.76,215.89 353.398,213.11 341.429,211.99 C 314.798,209.5 292.689,222.73 275.958,222.9 C 264.639,223.01 255.027,215.64 243.229,216.66 C 233.529,217.5 229.529,222.45 219.849,224.46 C 196.869,209.98 143.259,205.94 121.649,224.46 C 116.969,222.26 108.979,217.24 102.949,221.34 C 100.279,232.32 108.479,232.43 110.739,238.49 C 116.309,279.16 138.479,303.23 190.239,297.719 C 215.079,288.28 225.999,264.901 229.199,233.809 C 237.079,225.659 262.378,224.559 268.169,235.369 C 270.64,253.939 272.579,267.308 280.64,279.009 C 308.336,319.24 390.667,293.98 385.077,240.04 z M 347.667,201.08 C 361.718,203.01 370.837,213.79 381.958,210.43 C 372.397,194.52 365.278,176.18 357.019,158.99 C 299.087,136.52 202.069,125.36 137.239,149.64 C 133.019,158.52 128.959,170.14 124.769,180.81 C 120.569,191.5 113.059,203.28 115.419,210.43 C 125.549,213.76 135.559,203 151.269,201.08 C 175.729,198.07 202.959,205.99 221.409,211.99 C 235.299,204.02 262.239,203.63 275.958,211.99 C 295.027,205.6 322.637,197.63 347.667,201.08 z M 110.737,187.05 C 109.857,182.9 117.147,179.11 112.297,176.14 C 104.007,182.39 79.027,171.97 81.117,188.61 C 91.697,188.79 99.208,185.91 110.737,187.05 z M 109.177,190.17 C 98.847,191.27 83.267,187.11 79.567,194.84 C 90.077,193.92 103.147,195.56 109.177,190.17 z M 106.058,196.4 C 97.098,196.26 88.058,196.06 81.118,197.96 C 81.128,204.19 84.238,207.31 84.238,213.55 C 100.288,216.6 101.407,204.73 106.058,196.4 z M 88.917,227.57 C 90.267,224.16 97.237,218.35 93.587,215.1 C 93.857,218.48 88.067,215.81 85.797,216.66 C 86.407,220.73 86.597,225.22 88.917,227.57 z M 73.327,300.83 C 70.747,268.67 81.417,230.71 68.647,207.31 C 54.157,206.85 41.407,208.13 29.687,210.43 C 14.557,220.44 21.327,282.93 32.797,294.599 C 42.577,304.54 56.587,299.12 73.327,300.83 z"
   id="path2503" />
<path
   d="M 444.307,257.189 C 446.166,263.12 456.166,267.468 452.098,274.338 C 445.528,273.628 445.166,266.718 441.188,263.418 C 436.336,266.368 437.336,275.158 428.717,274.338 C 428.656,266.48 434.117,264.15 436.508,258.748 C 434.637,250.227 425.737,248.748 425.598,238.488 C 434.518,238.918 435.416,247.378 439.627,252.508 C 446.557,248.529 445.406,236.468 455.217,235.368 C 454.577,245.64 448.127,250.109 444.307,257.189 z"
   id="path2505" />
<radialGradient
   id="SVGID_1_"
   cx="58.067402"
   cy="179.0005"
   r="240.2988"
   gradientTransform="matrix(1,0,0,-1,94,394)"
   gradientUnits="userSpaceOnUse">
	<stop
   offset="0"
   style="stop-color:#F7F7F7"
   id="stop2508" />
	<stop
   offset="0.0972"
   style="stop-color:#E8E8E8"
   id="stop2510" />
	<stop
   offset="0.3618"
   style="stop-color:#C3C3C3"
   id="stop2512" />
	<stop
   offset="0.6087"
   style="stop-color:#A9A9A9"
   id="stop2514" />
	<stop
   offset="0.8288"
   style="stop-color:#999999"
   id="stop2516" />
	<stop
   offset="1"
   style="stop-color:#939393"
   id="stop2518" />
</radialGradient>
<path
   d="M 394.428,222.9 C 396.746,234.05 386.617,232.76 385.076,240.04 C 390.666,293.98 308.336,319.24 280.638,279.01 C 272.576,267.311 270.638,253.942 268.166,235.37 C 262.377,224.56 237.077,225.66 229.196,233.81 C 225.996,264.9 215.076,288.28 190.236,297.721 C 138.476,303.231 116.306,279.16 110.736,238.492 C 108.476,232.432 100.276,232.322 102.946,221.342 C 108.976,217.242 116.966,222.262 121.646,224.462 C 143.256,205.942 196.866,209.982 219.846,224.462 C 229.526,222.452 233.526,217.502 243.226,216.662 C 255.026,215.642 264.636,223.012 275.955,222.902 C 292.685,222.732 314.797,209.502 341.426,211.992 C 353.397,213.112 363.756,215.892 374.156,224.462 C 380.067,222.48 389.377,216.56 394.428,222.9 z M 289.987,277.45 C 316.266,315.62 383.737,285 378.837,233.81 C 357.179,215.96 301.679,218.2 277.519,232.25 C 279.768,251.529 281.947,265.77 289.987,277.45 z M 185.558,294.6 C 208.328,289.18 215.198,259.401 219.848,232.25 C 195.218,218.66 140.498,215.65 118.528,233.81 C 118.998,271.33 147.777,303.59 185.558,294.6 z"
   id="path2520"
   style="fill:url(#SVGID_1_)" />
<path
   d="M 378.836,233.81 C 383.736,285 316.268,315.62 289.986,277.45 C 281.946,265.769 279.766,251.53 277.516,232.25 C 301.678,218.2 357.178,215.96 378.836,233.81 z M 291.547,269.66 C 312.557,311.139 378.598,279.99 374.156,235.37 C 352.226,222.91 294.586,220.19 282.197,240.04 C 306.287,249.38 341.617,235.2 367.926,241.6 C 362.047,271.21 315.417,290.76 291.547,269.66 z M 358.577,244.72 C 341.807,240.95 338.458,250.58 327.397,252.51 C 319.336,247.731 308.807,243.79 296.227,247.84 C 302.697,274.609 354.928,271.24 358.577,244.72 z M 328.958,271.221 C 306.327,272.032 300.429,256.112 286.878,247.84 C 292.758,262.75 306.627,277.96 328.958,271.221 z"
   id="path2522" />
<path
   d="M 327.397,252.51 C 338.458,250.58 341.807,240.95 358.577,244.72 C 354.929,271.24 302.697,274.609 296.227,247.84 C 308.807,243.79 319.336,247.73 327.397,252.51 z"
   id="path2524"
   style="fill:#ffffff" />
<path
   d="M 286.877,247.84 C 300.428,256.111 306.326,272.029 328.957,271.221 C 306.627,277.96 292.758,262.75 286.877,247.84 z"
   id="path2526"
   style="fill:#ffffff" />
<path
   d="M 176.208,380.33 C 222.978,367.88 277.666,363.33 328.958,355.391 C 286.058,371.721 236.427,381.32 176.208,380.33 z"
   id="path2528" />
<path
   d="M 221.407,389.68 C 233.607,383.701 256.607,388.52 266.607,380.33 C 261.928,393.67 235.127,399.66 221.407,389.68 z"
   id="path2530" />
<path
   d="M 219.847,232.25 C 215.197,259.4 208.327,289.18 185.557,294.6 C 147.777,303.59 118.997,271.33 118.527,233.81 C 140.498,215.65 195.217,218.66 219.847,232.25 z M 124.768,249.4 C 127.048,294.779 210.878,304.92 208.938,254.07 C 200.368,271.75 185.268,283.16 162.178,279.008 C 148.768,276.599 137.308,263.558 130.998,255.628 C 129.527,253.779 128.217,245.64 124.768,249.4 z M 123.208,238.49 C 151.248,239.72 189.498,246.779 215.168,240.04 C 200.737,220.43 139.478,220.67 123.208,238.49 z M 204.257,247.84 C 191.947,257.87 182.407,270.67 162.177,272.779 C 187.288,275.54 197.797,263.721 204.257,247.84 z M 194.907,247.84 C 177.977,243.96 174.087,250.17 160.617,252.51 C 153.837,247.86 148.257,242.01 134.117,244.72 C 136.277,272.35 189.438,273.85 194.907,247.84 z M 168.407,246.279 C 165.667,247.179 159.247,244.4 159.057,247.84 C 161.058,249.98 168.377,250.55 168.407,246.279 z"
   id="path2532" />
<path
   d="M 162.177,272.779 C 182.407,270.67 191.948,257.87 204.257,247.84 C 197.797,263.721 187.288,275.54 162.177,272.779 z"
   id="path2534"
   style="fill:#ffffff" />
<path
   d="M 160.617,252.51 C 174.087,250.17 177.977,243.96 194.907,247.84 C 189.437,273.85 136.277,272.35 134.117,244.72 C 148.257,242.01 153.837,247.859 160.617,252.51 z"
   id="path2536"
   style="fill:#ffffff" />
<path
   d="M 159.057,247.799 C 159.277,244.361 165.672,247.197 168.42,246.32 C 168.353,250.59 161.039,249.957 159.057,247.799 z"
   id="path2538"
   style="fill:#ffffff" />
<linearGradient
   id="SVGID_2_"
   gradientUnits="userSpaceOnUse"
   x1="-25.354"
   y1="147.7202"
   x2="344.06689"
   y2="147.7202"
   gradientTransform="matrix(1,0,0,-1,94,394)">
	<stop
   offset="0"
   style="stop-color:#FFFF00"
   id="stop2541" />
	<stop
   offset="0.2293"
   style="stop-color:#FBFB00"
   id="stop2543" />
	<stop
   offset="0.4388"
   style="stop-color:#F0F000"
   id="stop2545" />
	<stop
   offset="0.6407"
   style="stop-color:#DEDE00"
   id="stop2547" />
	<stop
   offset="0.8366"
   style="stop-color:#C4C400"
   id="stop2549" />
	<stop
   offset="1"
   style="stop-color:#A8A800"
   id="stop2551" />
</linearGradient>
<path
   d="M 438.067,115.35 C 419.577,118.68 404.737,125.66 388.186,130.93 C 399.237,141.19 413.217,148.51 417.807,165.23 C 409.987,163.18 404.496,158.79 397.547,155.87 C 398.195,165.09 403.125,170.03 403.776,179.25 C 394.645,178.51 386.725,176.56 377.276,176.14 C 374.126,166.81 369.645,158.83 364.805,151.2 C 304.285,126.74 200.036,118.61 129.436,140.29 C 124.056,151.01 121.226,164.28 115.416,174.58 C 102.986,174.62 92.526,176.63 81.116,177.7 C 81.326,157.74 75.846,143.48 68.646,130.93 C 72.766,123.62 78.946,118.37 82.676,110.67 C 76.276,111.02 72.466,113.97 68.646,116.9 C 71.216,104.39 85.206,89.82 98.266,82.61 C 95.066,88.24 94.816,96.83 92.026,102.88 C 110.586,86.1 126.686,66.87 149.706,54.56 C 149.666,61.31 140.066,71.91 135.676,79.5 C 181.806,59.11 239.926,37.23 311.817,37.41 C 300.676,47.58 285.186,53.39 274.406,63.91 C 321.048,56.2 383.507,57.97 428.718,65.47 C 412.417,77.741 392.116,86.02 378.837,101.32 C 396.247,108.33 425.198,103.8 438.067,115.35 z M 385.077,194.84 C 387.567,197.03 389.057,200.21 389.747,204.19 C 396.509,204.19 403.259,204.19 410.018,204.19 C 410.018,201.08 410.018,197.96 410.018,194.84 C 404.958,192.58 390.038,192.01 385.077,194.84 z M 383.518,190.17 C 391.307,190.17 399.098,190.17 406.899,190.17 C 407.778,177.83 384.819,181.1 378.837,180.81 C 381.327,183 382.817,186.18 383.518,190.17 z M 254.138,423.97 C 160.788,428.26 93.028,386.67 84.238,303.95 C 72.658,343.929 77.008,401.62 99.828,425.53 C 99.748,420.78 101.238,417.598 104.498,416.178 C 106.458,428.78 112.388,437.388 120.088,444.24 C 120.588,439.018 121.698,434.41 124.768,431.768 C 129.578,436.82 133.258,443.018 137.238,448.91 C 142.438,448.92 141.368,442.65 145.028,441.12 C 148.668,446.83 152.188,452.67 159.058,455.15 C 160.258,450.11 163.368,446.99 168.408,445.798 C 170.988,449.98 176.318,451.4 179.318,455.15 C 216.008,452.298 274.948,451.61 311.819,455.15 C 314.649,450.71 320.378,449.16 324.288,445.798 C 329.149,447.168 329.399,453.15 333.64,455.15 C 337.119,449.79 342.531,446.37 346.111,441.12 C 349.55,442.36 348.131,448.45 352.34,448.91 C 358.16,443.82 360.17,434.92 367.93,431.768 C 369.6,435.808 368.92,442.208 372.612,444.24 C 378.442,435.518 383.202,425.74 388.192,416.178 C 390.452,418.598 390.27,423.449 392.872,425.53 C 410.622,397.67 419.532,344.87 405.341,307.07 C 396.667,385.3 339.698,420.04 254.138,423.97 z M 394.428,210.43 C 400.608,210.48 400.877,216.44 403.778,219.78 C 404.038,215.37 406.637,213.29 406.899,208.87 C 403.167,209.82 395.586,206.91 394.428,210.43 z M 81.117,188.61 C 91.697,188.79 99.207,185.91 110.737,187.05 C 109.857,182.9 117.147,179.11 112.297,176.14 C 104.007,182.39 79.027,171.97 81.117,188.61 z M 109.177,190.17 C 98.847,191.27 83.267,187.11 79.567,194.84 C 90.077,193.92 103.147,195.56 109.177,190.17 z M 84.237,213.55 C 100.287,216.6 101.407,204.73 106.057,196.4 C 97.097,196.26 88.057,196.06 81.117,197.96 C 81.127,204.19 84.237,207.31 84.237,213.55 z M 85.797,216.66 C 86.407,220.73 86.597,225.22 88.917,227.57 C 90.267,224.16 97.237,218.35 93.587,215.1 C 93.857,218.48 88.067,215.81 85.797,216.66 z"
   id="path2553"
   style="fill:url(#SVGID_2_)" />
<radialGradient
   id="SVGID_3_"
   cx="54.067902"
   cy="230.00101"
   r="298.49829"
   fx="165.06821"
   fy="5.0007"
   gradientTransform="matrix(1,0,0,-1,94,394)"
   gradientUnits="userSpaceOnUse">
	<stop
   offset="0"
   style="stop-color:#FFDCCC"
   id="stop2556" />
	<stop
   offset="0.5654"
   style="stop-color:#FDDACA"
   id="stop2558" />
	<stop
   offset="0.7691"
   style="stop-color:#F6D4C5"
   id="stop2560" />
	<stop
   offset="0.9137"
   style="stop-color:#EBCABB"
   id="stop2562" />
	<stop
   offset="1"
   style="stop-color:#DFC0B2"
   id="stop2564" />
</radialGradient>
<path
   d="M 374.157,235.37 C 378.596,279.99 312.557,311.141 291.548,269.66 C 315.417,290.76 362.048,271.21 367.929,241.6 C 341.618,235.2 306.288,249.38 282.199,240.04 C 294.586,220.19 352.227,222.91 374.157,235.37 z M 162.177,279.01 C 148.767,276.6 137.307,263.561 130.997,255.63 C 129.527,253.779 128.217,245.64 124.767,249.401 C 127.047,294.782 210.877,304.922 208.937,254.071 C 200.367,271.75 185.268,283.16 162.177,279.01 z M 123.208,238.49 C 151.248,239.72 189.498,246.779 215.168,240.04 C 200.737,220.43 139.478,220.67 123.208,238.49 z M 422.487,207.31 C 410.477,225.67 411.987,278.189 419.368,300.83 C 474.487,318.439 475.987,232.36 459.897,210.43 C 448.557,208.26 436.438,206.87 422.487,207.31 z M 441.188,263.42 C 436.336,266.37 437.336,275.16 428.717,274.34 C 428.656,266.481 434.117,264.151 436.508,258.75 C 434.637,250.23 425.737,248.75 425.598,238.49 C 434.518,238.92 435.416,247.38 439.627,252.51 C 446.557,248.531 445.406,236.47 455.217,235.37 C 454.576,245.64 448.127,250.109 444.307,257.189 C 446.166,263.12 456.166,267.468 452.098,274.338 C 445.528,273.63 445.167,266.721 441.188,263.42 z M 305.577,308.63 C 287.157,305.401 272.848,291.01 265.048,274.34 C 259.247,261.91 256.497,239.84 251.027,238.49 C 238.177,235.3 237.727,261.99 233.877,271.219 C 225.537,291.19 206.887,305.93 188.677,308.629 C 131.267,317.129 106.297,284.93 99.827,240.039 C 99.737,239.089 99.597,238.199 98.267,238.489 C 94.217,245.189 88.627,251.177 87.357,257.189 C 82.857,278.499 92.537,288.217 96.707,299.279 C 106.497,325.209 108.657,351.909 124.767,372.539 C 152.987,408.669 213.147,418.509 266.607,414.619 C 291.618,412.799 327.737,406.319 346.108,394.359 C 381.217,371.489 396.497,324.068 400.657,285.249 C 401.917,273.568 403.009,256.219 395.987,244.719 C 391.708,287.15 359.247,318.029 305.577,308.63 z M 176.208,380.33 C 222.978,367.88 277.666,363.33 328.958,355.391 C 286.058,371.721 236.427,381.32 176.208,380.33 z M 221.407,389.68 C 233.607,383.701 256.607,388.52 266.607,380.33 C 261.928,393.67 235.127,399.66 221.407,389.68 z M 381.958,210.43 C 370.837,213.79 361.718,203.01 347.667,201.08 C 322.638,197.63 295.027,205.6 275.958,211.99 C 262.237,203.63 235.297,204.02 221.408,211.99 C 202.958,205.99 175.728,198.07 151.268,201.08 C 135.558,203 125.548,213.76 115.418,210.43 C 113.058,203.28 120.568,191.5 124.768,180.81 C 128.958,170.14 133.018,158.52 137.238,149.64 C 202.068,125.36 299.088,136.52 357.017,158.99 C 365.278,176.18 372.397,194.52 381.958,210.43 z M 29.688,210.43 C 14.558,220.44 21.328,282.93 32.798,294.599 C 42.578,304.538 56.588,299.12 73.328,300.828 C 70.748,268.668 81.418,230.708 68.648,207.308 C 54.157,206.85 41.407,208.13 29.688,210.43 z M 60.857,274.34 C 52.767,275.16 53.017,267.63 49.947,263.42 C 43.787,265.05 44.787,273.85 37.477,274.34 C 33.327,267.83 42.697,263.51 45.267,258.75 C 42.987,249.6 34.537,246.62 34.357,235.37 C 42.907,237.21 44.467,246.05 48.387,252.51 C 55.547,249.8 54.307,238.69 63.977,238.49 C 63.997,248.38 56.657,250.92 53.067,257.189 C 54.117,264.45 61.217,265.66 60.857,274.34 z"
   id="path2566"
   style="fill:url(#SVGID_3_)" />
<path
   d="M 63.978,238.49 C 63.998,248.38 56.658,250.92 53.068,257.189 C 54.118,264.45 61.218,265.66 60.858,274.338 C 52.768,275.158 53.018,267.628 49.948,263.418 C 43.788,265.048 44.788,273.849 37.478,274.338 C 33.328,267.828 42.698,263.508 45.268,258.748 C 42.988,249.599 34.538,246.618 34.358,235.368 C 42.908,237.208 44.468,246.048 48.388,252.508 C 55.547,249.8 54.308,238.69 63.978,238.49 z"
   id="path2568" />
<path
   d="M 123.208,238.49 C 123.208,238.49 123.312,225.903 169.367,225.333 C 182.867,225.166 214.102,231.043 212.867,240 C 212.2,244.833 208.898,259.56 208.199,263.333 C 206.532,272.333 203.532,275 198.367,280.833 C 197.379,281.949 179.867,293.833 152.367,283.833 C 146.965,281.869 133.7,276.333 126.7,259.333"
   id="path2570"
   style="opacity:0.5;fill:#ffffff" />
<path
   d="M 282.367,240.5 C 289.147,235.154 286.44,228.678 326.536,225.793 C 349.703,224.126 370.659,235.163 373.536,235.793 C 376.413,236.423 375.409,253.231 366.37,265.46 C 360.703,273.127 359.255,273.963 358.534,274.5 C 349.368,281.333 341.488,285.447 330.703,288.627 C 317.703,292.46 304.203,284.293 304.203,284.293 C 304.203,284.293 294.468,275.357 292.203,271.127 C 285.534,258.667 282.367,240.5 282.367,240.5 z"
   id="path2572"
   style="opacity:0.5;fill:#ffffff" />
</svg>