<?xml version="1.0" encoding="utf-8"?>
<!-- Generator: Adobe Illustrator 13.0.1, SVG Export Plug-In . SVG Version: 6.00 Build 14948)  -->
<!DOCTYPE svg PUBLIC "-//W3C//DTD SVG 1.1//EN" "http://www.w3.org/Graphics/SVG/1.1/DTD/svg11.dtd">
<svg version="1.1" id="Layer_1" xmlns="http://www.w3.org/2000/svg" xmlns:xlink="http://www.w3.org/1999/xlink" x="0px" y="0px"
	 width="491.067px" height="491px" viewBox="0 0 491.067 491" enable-background="new 0 0 491.067 491" xml:space="preserve">
	<path d="M466.127,194.84c10.32,7.49,22.471,18.21,20.26,42.09c-3.17,34.3-12.85,77.16-40.52,81.05c-8.291,1.17-13.84-0.871-21.83,0
	c9.91,52.51-5.09,102.898-32.73,127.818c0.5-3.62-0.25-5.99-1.561-7.8c-7.279,7.27-12.879,16.21-20.26,23.38
	c-3.08-1.07-4.16-4.148-4.68-7.79c-5.131,3.7-9.83,7.83-14.029,12.47c-4.881,0.73-4.391-3.92-6.23-6.229
	c-5.369,2.938-7.6,9.03-14.029,10.91c-5.961,0.24-5.07-6.37-7.791-9.36c-7.85,2.55-11.789,9-20.27,10.91
	c1.289-4.4-2.189-4.03-1.561-7.79c-34.43,1.38-73.47,3.05-107.55,0c-2.31,1.33-3.35,3.92-3.11,7.79
	c-7.82-2.05-12.51-7.23-18.71-10.91c-4.59,1.64-5.42,7.05-7.79,10.91c-6.22-2.62-10.22-7.45-14.03-12.46
	c-4.4,0.28-1.95,7.4-7.8,6.229c-3.6-4.71-9.76-6.858-12.47-12.47c-3.99,0.16-2.5,5.812-4.67,7.79
	c-10.04-4.51-14.76-14.33-20.27-23.38c-4.72-0.57-3.23,5.08-4.67,7.8c-26.13-25.56-43.79-76.529-31.18-126.26
	c-51.66,9.51-61.03-40.141-65.46-81.05c-4.26-39.3,22.19-47.32,60.79-46.771c8.16-19.51-0.8-43.51-10.91-54.55
	c0.02-5.69,4.43-7,6.23-10.91c-4.67,0-9.35,0-14.03,0c12-31.66,33.37-53.92,62.35-68.59c0,4.68,0,9.36,0,14.03
	c15.58-18.71,36.56-32.03,65.47-37.41c0.11,7.9-5.51,10.08-6.24,17.15c42.02-21.89,109.43-31.9,182.38-28.06
	c-5.961,9.11-15.939,14.2-24.939,20.26c47.82-1.32,98.27,4.72,134.049,20.27c-17.77,9.77-39.209,15.86-51.438,31.17
	c23.889,1.05,42.229,7.65,57.67,17.15c-14.352,9.55-30.262,17.53-46.762,24.94c6.092,15.21,15.771,26.83,18.701,45.2
	c-5.801-1.99-13.141-2.44-18.701-4.67c1.16,6.11,6.08,8.46,7.791,14.02C439.608,192.26,451.438,194.98,466.127,194.84z
	 M419.368,300.83c55.119,17.609,56.619-68.47,40.529-90.4c-11.34-2.17-23.459-3.56-37.41-3.12
	C410.477,225.67,411.987,278.189,419.368,300.83z M388.188,130.93c16.551-5.27,31.391-12.25,49.881-15.58
	c-12.871-11.55-41.82-7.02-59.23-14.03c13.279-15.3,33.58-23.58,49.881-35.85c-45.211-7.5-107.67-9.27-154.311-1.56
	c10.779-10.52,26.271-16.33,37.41-26.5c-71.891-0.18-130.011,21.7-176.141,42.09c4.39-7.59,13.99-18.19,14.03-24.94
	c-23.02,12.31-39.12,31.54-57.68,48.32c2.79-6.05,3.04-14.64,6.24-20.27c-13.06,7.21-27.05,21.78-29.62,34.29
	c3.82-2.93,7.63-5.88,14.03-6.23c-3.73,7.7-9.91,12.95-14.03,20.26c7.2,12.55,12.68,26.81,12.47,46.77
	c11.41-1.07,21.87-3.08,34.3-3.12c5.81-10.3,8.64-23.57,14.02-34.29c70.6-21.68,174.85-13.55,235.369,10.91
	c4.842,7.63,9.32,15.61,12.471,24.94c9.449,0.42,17.371,2.37,26.5,3.11c-0.65-9.22-5.58-14.16-6.229-23.38
	c6.949,2.92,12.439,7.31,20.26,9.36C413.217,148.51,399.237,141.19,388.188,130.93z M410.018,204.19c0-3.11,0-6.23,0-9.35
	c-5.061-2.26-19.98-2.83-24.939,0c2.49,2.19,3.979,5.37,4.67,9.35C396.508,204.19,403.258,204.19,410.018,204.19z M406.897,190.17
	c0.881-12.34-22.08-9.07-28.061-9.36c2.49,2.19,3.98,5.37,4.68,9.36C391.307,190.17,399.098,190.17,406.897,190.17z M392.868,425.53
	c17.75-27.86,26.66-80.66,12.469-118.46c-8.67,78.229-65.639,112.97-151.198,116.898c-93.35,4.29-161.11-37.3-169.9-120.02
	c-11.58,39.979-7.23,97.67,15.59,121.58c-0.08-4.75,1.41-7.932,4.67-9.352c1.96,12.602,7.89,21.21,15.59,28.062
	c0.5-5.222,1.61-9.83,4.68-12.472c4.81,5.052,8.49,11.25,12.47,17.142c5.2,0.01,4.13-6.26,7.79-7.79
	c3.64,5.71,7.16,11.55,14.03,14.03c1.2-5.04,4.31-8.16,9.35-9.352c2.58,4.181,7.91,5.602,10.91,9.352
	c36.69-2.852,95.63-3.54,132.501,0c2.83-4.44,8.559-5.99,12.469-9.352c4.861,1.37,5.111,7.352,9.352,9.352
	c3.479-5.36,8.891-8.78,12.471-14.03c3.439,1.24,2.02,7.33,6.229,7.79c5.82-5.09,7.83-13.99,15.59-17.142
	c1.67,4.04,0.99,10.44,4.682,12.472c5.83-8.722,10.59-18.5,15.58-28.062C390.448,418.6,390.268,423.45,392.868,425.53z
	 M403.778,219.78c0.26-4.41,2.859-6.49,3.119-10.91c-3.73,0.95-11.311-1.96-12.471,1.56
	C400.608,210.48,400.877,216.44,403.778,219.78z M400.657,285.25c1.26-11.68,2.352-29.029-4.67-40.53
	c-4.279,42.43-36.74,73.309-90.41,63.91c-18.42-3.229-32.729-17.62-40.529-34.29c-5.801-12.43-8.551-34.5-14.021-35.85
	c-12.85-3.19-13.3,23.5-17.15,32.729c-8.34,19.971-26.99,34.711-45.2,37.41c-57.41,8.5-82.38-23.699-88.85-68.59
	c-0.09-0.95-0.23-1.84-1.56-1.55c-4.05,6.7-9.64,12.688-10.91,18.7c-4.5,21.31,5.18,31.028,9.35,42.09
	c9.79,25.93,11.95,52.63,28.06,73.26c28.22,36.13,88.38,45.97,141.84,42.08c25.011-1.82,61.13-8.3,79.501-20.26
	C381.217,371.49,396.497,324.07,400.657,285.25z M385.077,240.04c1.541-7.28,11.67-5.99,9.352-17.14
	c-5.051-6.34-14.359-0.42-20.271,1.56c-10.398-8.57-20.76-11.35-32.729-12.47c-26.631-2.49-48.74,10.74-65.471,10.91
	c-11.319,0.11-20.931-7.26-32.729-6.24c-9.7,0.84-13.7,5.79-23.38,7.8c-22.98-14.48-76.59-18.52-98.2,0
	c-4.68-2.2-12.67-7.22-18.7-3.12c-2.67,10.98,5.53,11.09,7.79,17.15c5.57,40.67,27.74,64.74,79.5,59.229
	c24.84-9.439,35.76-32.818,38.96-63.91c7.88-8.15,33.179-9.25,38.97,1.56c2.471,18.57,4.41,31.939,12.471,43.64
	C308.336,319.24,390.667,293.98,385.077,240.04z M347.667,201.08c14.051,1.93,23.17,12.71,34.291,9.35
	c-9.561-15.91-16.68-34.25-24.939-51.44c-57.932-22.47-154.95-33.63-219.78-9.35c-4.22,8.88-8.28,20.5-12.47,31.17
	c-4.2,10.69-11.71,22.47-9.35,29.62c10.13,3.33,20.14-7.43,35.85-9.35c24.46-3.01,51.69,4.91,70.14,10.91
	c13.89-7.97,40.83-8.36,54.549,0C295.027,205.6,322.637,197.63,347.667,201.08z M110.737,187.05c-0.88-4.15,6.41-7.94,1.56-10.91
	c-8.29,6.25-33.27-4.17-31.18,12.47C91.697,188.79,99.208,185.91,110.737,187.05z M109.177,190.17c-10.33,1.1-25.91-3.06-29.61,4.67
	C90.077,193.92,103.147,195.56,109.177,190.17z M106.058,196.4c-8.96-0.14-18-0.34-24.94,1.56c0.01,6.23,3.12,9.35,3.12,15.59
	C100.288,216.6,101.407,204.73,106.058,196.4z M88.917,227.57c1.35-3.41,8.32-9.22,4.67-12.47c0.27,3.38-5.52,0.71-7.79,1.56
	C86.407,220.73,86.597,225.22,88.917,227.57z M73.327,300.83c-2.58-32.16,8.09-70.12-4.68-93.52c-14.49-0.46-27.24,0.82-38.96,3.12
	c-15.13,10.01-8.36,72.5,3.11,84.169C42.577,304.54,56.587,299.12,73.327,300.83z"/>
<path d="M444.307,257.189c1.859,5.931,11.859,10.279,7.791,17.149c-6.57-0.71-6.932-7.62-10.91-10.92
	c-4.852,2.95-3.852,11.74-12.471,10.92c-0.061-7.858,5.4-10.188,7.791-15.59c-1.871-8.521-10.771-10-10.91-20.26
	c8.92,0.43,9.818,8.89,14.029,14.02c6.93-3.979,5.779-16.04,15.59-17.14C454.577,245.64,448.127,250.109,444.307,257.189z"/>
<radialGradient id="SVGID_1_" cx="58.0674" cy="179.0005" r="240.2988" gradientTransform="matrix(1 0 0 -1 94 394)" gradientUnits="userSpaceOnUse">
	<stop  offset="0" style="stop-color:#F7F7F7"/>
	<stop  offset="0.0972" style="stop-color:#E8E8E8"/>
	<stop  offset="0.3618" style="stop-color:#C3C3C3"/>
	<stop  offset="0.6087" style="stop-color:#A9A9A9"/>
	<stop  offset="0.8288" style="stop-color:#999999"/>
	<stop  offset="1" style="stop-color:#939393"/>
</radialGradient>
<path fill="url(#SVGID_1_)" d="M394.428,222.9c2.318,11.15-7.811,9.86-9.352,17.14c5.59,53.94-76.74,79.2-104.438,38.97
	c-8.062-11.699-10-25.068-12.472-43.64c-5.789-10.81-31.089-9.71-38.97-1.56c-3.2,31.09-14.12,54.47-38.96,63.911
	c-51.76,5.51-73.93-18.561-79.5-59.229c-2.26-6.06-10.46-6.17-7.79-17.15c6.03-4.1,14.02,0.92,18.7,3.12
	c21.61-18.52,75.22-14.48,98.2,0c9.68-2.01,13.68-6.96,23.38-7.8c11.8-1.02,21.41,6.35,32.729,6.24
	c16.73-0.17,38.842-13.4,65.471-10.91c11.971,1.12,22.33,3.9,32.73,12.47C380.067,222.48,389.377,216.56,394.428,222.9z
	 M289.987,277.45c26.279,38.17,93.75,7.55,88.85-43.64c-21.658-17.85-77.158-15.61-101.318-1.56
	C279.768,251.529,281.947,265.77,289.987,277.45z M185.558,294.6c22.77-5.42,29.64-35.199,34.29-62.35
	c-24.63-13.59-79.35-16.6-101.32,1.56C118.998,271.33,147.777,303.59,185.558,294.6z"/>
<path d="M378.836,233.81c4.9,51.19-62.568,81.81-88.85,43.64c-8.04-11.681-10.22-25.92-12.47-45.2
	C301.678,218.2,357.178,215.96,378.836,233.81z M291.547,269.66c21.01,41.479,87.051,10.33,82.609-34.29
	c-21.93-12.46-79.57-15.18-91.959,4.67c24.09,9.34,59.42-4.84,85.729,1.56C362.047,271.21,315.417,290.76,291.547,269.66z
	 M358.577,244.72c-16.77-3.77-20.119,5.86-31.18,7.79c-8.061-4.779-18.59-8.72-31.17-4.67
	C302.697,274.609,354.928,271.24,358.577,244.72z M328.958,271.221c-22.631,0.811-28.529-15.109-42.08-23.381
	C292.758,262.75,306.627,277.96,328.958,271.221z"/>
<path fill="#FFFFFF" d="M327.397,252.51c11.061-1.93,14.41-11.56,31.18-7.79c-3.648,26.52-55.88,29.889-62.35,3.12
	C308.807,243.79,319.336,247.73,327.397,252.51z"/>
<path fill="#FFFFFF" d="M286.877,247.84c13.551,8.271,19.449,24.189,42.08,23.381C306.627,277.96,292.758,262.75,286.877,247.84z"/>
<path d="M176.208,380.33c46.77-12.45,101.458-17,152.75-24.939C286.058,371.721,236.427,381.32,176.208,380.33z"/>
<path d="M221.407,389.68c12.2-5.979,35.2-1.16,45.2-9.35C261.928,393.67,235.127,399.66,221.407,389.68z"/>
<path d="M219.847,232.25c-4.65,27.15-11.52,56.93-34.29,62.35c-37.78,8.99-66.56-23.27-67.03-60.79
	C140.498,215.65,195.217,218.66,219.847,232.25z M124.768,249.4c2.28,45.379,86.11,55.52,84.17,4.67
	c-8.57,17.68-23.67,29.09-46.76,24.938c-13.41-2.409-24.87-15.45-31.18-23.38C129.527,253.779,128.217,245.64,124.768,249.4z
	 M123.208,238.49c28.04,1.23,66.29,8.289,91.96,1.55C200.737,220.43,139.478,220.67,123.208,238.49z M204.257,247.84
	c-12.31,10.03-21.85,22.83-42.08,24.939C187.288,275.54,197.797,263.721,204.257,247.84z M194.907,247.84
	c-16.93-3.88-20.82,2.33-34.29,4.67c-6.78-4.65-12.36-10.5-26.5-7.79C136.277,272.35,189.438,273.85,194.907,247.84z
	 M168.407,246.279c-2.74,0.9-9.16-1.879-9.35,1.561C161.058,249.98,168.377,250.55,168.407,246.279z"/>
<path fill="#FFFFFF" d="M162.177,272.779c20.23-2.109,29.771-14.909,42.08-24.939C197.797,263.721,187.288,275.54,162.177,272.779z"
	/>
<path fill="#FFFFFF" d="M160.617,252.51c13.47-2.34,17.36-8.55,34.29-4.67c-5.47,26.01-58.63,24.51-60.79-3.12
	C148.257,242.01,153.837,247.859,160.617,252.51z"/>
<path fill="#FFFFFF" d="M159.057,247.799c0.22-3.438,6.615-0.602,9.363-1.479C168.353,250.59,161.039,249.957,159.057,247.799z"/>
<linearGradient id="SVGID_2_" gradientUnits="userSpaceOnUse" x1="-25.354" y1="147.7202" x2="344.0669" y2="147.7202" gradientTransform="matrix(1 0 0 -1 94 394)">
	<stop  offset="0" style="stop-color:#FFFF00"/>
	<stop  offset="0.2293" style="stop-color:#FBFB00"/>
	<stop  offset="0.4388" style="stop-color:#F0F000"/>
	<stop  offset="0.6407" style="stop-color:#DEDE00"/>
	<stop  offset="0.8366" style="stop-color:#C4C400"/>
	<stop  offset="1" style="stop-color:#A8A800"/>
</linearGradient>
<path fill="url(#SVGID_2_)" d="M438.067,115.35c-18.49,3.33-33.33,10.31-49.881,15.58c11.051,10.26,25.031,17.58,29.621,34.3
	c-7.82-2.05-13.311-6.44-20.26-9.36c0.648,9.22,5.578,14.16,6.229,23.38c-9.131-0.74-17.051-2.69-26.5-3.11
	c-3.15-9.33-7.631-17.31-12.471-24.94c-60.52-24.46-164.769-32.59-235.369-10.91c-5.38,10.72-8.21,23.99-14.02,34.29
	c-12.43,0.04-22.89,2.05-34.3,3.12c0.21-19.96-5.27-34.22-12.47-46.77c4.12-7.31,10.3-12.56,14.03-20.26
	c-6.4,0.35-10.21,3.3-14.03,6.23c2.57-12.51,16.56-27.08,29.62-34.29c-3.2,5.63-3.45,14.22-6.24,20.27
	c18.56-16.78,34.66-36.01,57.68-48.32c-0.04,6.75-9.64,17.35-14.03,24.94c46.13-20.39,104.25-42.27,176.141-42.09
	c-11.141,10.17-26.631,15.98-37.411,26.5c46.642-7.71,109.101-5.94,154.312,1.56c-16.301,12.271-36.602,20.55-49.881,35.85
	C396.247,108.33,425.198,103.8,438.067,115.35z M385.077,194.84c2.49,2.19,3.98,5.37,4.67,9.35c6.762,0,13.512,0,20.271,0
	c0-3.11,0-6.23,0-9.35C404.958,192.58,390.038,192.01,385.077,194.84z M383.518,190.17c7.789,0,15.58,0,23.381,0
	c0.879-12.34-22.08-9.07-28.062-9.36C381.327,183,382.817,186.18,383.518,190.17z M254.138,423.97
	c-93.35,4.29-161.11-37.3-169.9-120.02c-11.58,39.979-7.23,97.67,15.59,121.58c-0.08-4.75,1.41-7.932,4.67-9.352
	c1.96,12.602,7.89,21.21,15.59,28.062c0.5-5.222,1.61-9.83,4.68-12.472c4.81,5.052,8.49,11.25,12.47,17.142
	c5.2,0.01,4.13-6.26,7.79-7.79c3.64,5.71,7.16,11.55,14.03,14.03c1.2-5.04,4.31-8.16,9.35-9.352c2.58,4.182,7.91,5.602,10.91,9.352
	c36.69-2.852,95.63-3.54,132.501,0c2.83-4.44,8.559-5.99,12.469-9.352c4.861,1.37,5.111,7.352,9.352,9.352
	c3.479-5.36,8.891-8.78,12.471-14.03c3.439,1.24,2.02,7.33,6.229,7.79c5.82-5.09,7.83-13.99,15.59-17.142
	c1.67,4.04,0.99,10.44,4.682,12.472c5.83-8.722,10.59-18.5,15.58-28.062c2.26,2.42,2.078,7.271,4.68,9.352
	c17.75-27.86,26.66-80.66,12.469-118.46C396.667,385.3,339.698,420.04,254.138,423.97z M394.428,210.43
	c6.18,0.05,6.449,6.01,9.35,9.35c0.26-4.41,2.859-6.49,3.121-10.91C403.167,209.82,395.586,206.91,394.428,210.43z M81.117,188.61
	c10.58,0.18,18.09-2.7,29.62-1.56c-0.88-4.15,6.41-7.94,1.56-10.91C104.007,182.39,79.027,171.97,81.117,188.61z M109.177,190.17
	c-10.33,1.1-25.91-3.06-29.61,4.67C90.077,193.92,103.147,195.56,109.177,190.17z M84.237,213.55c16.05,3.05,17.17-8.82,21.82-17.15
	c-8.96-0.14-18-0.34-24.94,1.56C81.127,204.19,84.237,207.31,84.237,213.55z M85.797,216.66c0.61,4.07,0.8,8.56,3.12,10.91
	c1.35-3.41,8.32-9.22,4.67-12.47C93.857,218.48,88.067,215.81,85.797,216.66z"/>
<radialGradient id="SVGID_3_" cx="54.0679" cy="230.001" r="298.4983" fx="165.0682" fy="5.0007" gradientTransform="matrix(1 0 0 -1 94 394)" gradientUnits="userSpaceOnUse">
	<stop  offset="0" style="stop-color:#FFDCCC"/>
	<stop  offset="0.5654" style="stop-color:#FDDACA"/>
	<stop  offset="0.7691" style="stop-color:#F6D4C5"/>
	<stop  offset="0.9137" style="stop-color:#EBCABB"/>
	<stop  offset="1" style="stop-color:#DFC0B2"/>
</radialGradient>
<path fill="url(#SVGID_3_)" d="M374.157,235.37c4.439,44.62-61.6,75.771-82.609,34.29c23.869,21.1,70.5,1.55,76.381-28.06
	c-26.311-6.4-61.641,7.78-85.73-1.56C294.586,220.19,352.227,222.91,374.157,235.37z M162.177,279.01
	c-13.41-2.41-24.87-15.449-31.18-23.38c-1.47-1.851-2.78-9.99-6.23-6.229c2.28,45.381,86.11,55.521,84.17,4.67
	C200.367,271.75,185.268,283.16,162.177,279.01z M123.208,238.49c28.04,1.23,66.29,8.289,91.96,1.55
	C200.737,220.43,139.478,220.67,123.208,238.49z M422.487,207.31c-12.01,18.36-10.5,70.879-3.119,93.52
	c55.119,17.609,56.619-68.47,40.529-90.4C448.557,208.26,436.438,206.87,422.487,207.31z M441.188,263.42
	c-4.852,2.95-3.852,11.74-12.471,10.92c-0.061-7.859,5.4-10.189,7.791-15.59c-1.871-8.52-10.771-10-10.91-20.26
	c8.92,0.43,9.818,8.89,14.029,14.02c6.93-3.979,5.779-16.04,15.59-17.14c-0.641,10.27-7.09,14.739-10.91,21.819
	c1.859,5.931,11.859,10.279,7.791,17.149C445.528,273.63,445.167,266.721,441.188,263.42z M305.577,308.63
	c-18.42-3.229-32.729-17.62-40.529-34.29c-5.801-12.43-8.551-34.5-14.021-35.85c-12.85-3.19-13.3,23.5-17.15,32.729
	c-8.34,19.971-26.99,34.711-45.2,37.41c-57.41,8.5-82.38-23.699-88.85-68.59c-0.09-0.95-0.23-1.84-1.56-1.55
	c-4.05,6.7-9.64,12.688-10.91,18.7c-4.5,21.31,5.18,31.028,9.35,42.09c9.79,25.93,11.95,52.63,28.06,73.26
	c28.22,36.13,88.38,45.97,141.84,42.08c25.011-1.82,61.13-8.3,79.501-20.26c35.109-22.87,50.389-70.291,54.549-109.11
	c1.26-11.681,2.352-29.03-4.67-40.53C391.708,287.15,359.247,318.029,305.577,308.63z M176.208,380.33
	c46.77-12.45,101.458-17,152.75-24.939C286.058,371.721,236.427,381.32,176.208,380.33z M221.407,389.68
	c12.2-5.979,35.2-1.16,45.2-9.35C261.928,393.67,235.127,399.66,221.407,389.68z M381.958,210.43
	c-11.121,3.36-20.24-7.42-34.291-9.35c-25.029-3.45-52.64,4.52-71.709,10.91c-13.721-8.36-40.661-7.97-54.55,0
	c-18.45-6-45.68-13.92-70.14-10.91c-15.71,1.92-25.72,12.68-35.85,9.35c-2.36-7.15,5.15-18.93,9.35-29.62
	c4.19-10.67,8.25-22.29,12.47-31.17c64.83-24.28,161.85-13.12,219.779,9.35C365.278,176.18,372.397,194.52,381.958,210.43z
	 M29.688,210.43c-15.13,10.01-8.36,72.5,3.11,84.169c9.78,9.939,23.79,4.521,40.53,6.229c-2.58-32.16,8.09-70.12-4.68-93.52
	C54.157,206.85,41.407,208.13,29.688,210.43z M60.857,274.34c-8.09,0.82-7.84-6.71-10.91-10.92c-6.16,1.63-5.16,10.43-12.47,10.92
	c-4.15-6.51,5.22-10.83,7.79-15.59c-2.28-9.15-10.73-12.13-10.91-23.38c8.55,1.84,10.11,10.68,14.03,17.14
	c7.16-2.71,5.92-13.82,15.59-14.02c0.02,9.89-7.32,12.43-10.91,18.699C54.117,264.45,61.217,265.66,60.857,274.34z"/>
<path d="M63.978,238.49c0.02,9.89-7.32,12.43-10.91,18.699c1.05,7.261,8.15,8.471,7.79,17.149c-8.09,0.82-7.84-6.71-10.91-10.92
	c-6.16,1.63-5.16,10.431-12.47,10.92c-4.15-6.51,5.22-10.83,7.79-15.59c-2.28-9.149-10.73-12.13-10.91-23.38
	c8.55,1.84,10.11,10.68,14.03,17.14C55.547,249.8,54.308,238.69,63.978,238.49z"/>
<path opacity="0.5" fill="#FFFFFF" d="M123.208,238.49c0,0,0.104-12.587,46.159-13.157c13.5-0.167,44.735,5.71,43.5,14.667
	c-0.667,4.833-3.969,19.56-4.668,23.333c-1.667,9-4.667,11.667-9.832,17.5c-0.988,1.116-18.5,13-46,3
	c-5.402-1.964-18.667-7.5-25.667-24.5"/>
<path opacity="0.5" fill="#FFFFFF" d="M282.367,240.5c6.78-5.346,4.073-11.822,44.169-14.707c23.167-1.667,44.123,9.37,47,10
	s1.873,17.438-7.166,29.667c-5.667,7.667-7.115,8.503-7.836,9.04c-9.166,6.833-17.046,10.947-27.831,14.127
	c-13,3.833-26.5-4.334-26.5-4.334s-9.735-8.936-12-13.166C285.534,258.667,282.367,240.5,282.367,240.5z"/>
</svg>
